<svg width="116" height="76" viewBox="0 0 116 76" xmlns="http://www.w3.org/2000/svg"><g fill="#FFFFFF" fill-rule="evenodd"><path d="M77.268 35.173h.173c.2 0 .363-.068.363-.23 0-.142-.105-.238-.335-.238a.906.906 0 0 0-.2.019v.449zm-.009.877h-.364v-1.564c.144-.019.345-.048.603-.048.297 0 .431.048.537.124.095.067.162.18.162.334 0 .19-.143.314-.325.371v.02c.153.047.23.171.278.381.047.239.085.324.115.382h-.384c-.047-.058-.077-.192-.124-.382-.029-.163-.125-.238-.326-.238h-.172v.62zm.24-2.06c-.68 0-1.207.563-1.207 1.249 0 .696.527 1.25 1.225 1.25.68.009 1.198-.554 1.198-1.24 0-.696-.518-1.258-1.207-1.258h-.01zm.018-.315c.89 0 1.6.687 1.6 1.564s-.71 1.573-1.61 1.573c-.9 0-1.618-.696-1.618-1.573s.719-1.564 1.619-1.564h.01zM54.797 0h-.602l-9.98 19.386L27.44 9.104l-.996-.032L35 35.576l5.792-.786-5.02-14.767 11.19 6.503 2.046-4.202-.004-.002 5.428-10.798 4.583 9.53 4.892-2.852z"/><path d="M81.312 9.104L54.376 25.47l-4.028-2.353-1.992 4.22 5.679 3.3h.683l18.264-10.612L67.96 34.79l5.793.786 8.554-26.504zM14.22 53.396L.968 41.27H0v21.094h4.25V49.632l9.628 8.799h.642l9.144-8.761v12.694h4.25V41.27h-.973zM33.149 62.364h4.25V41.587h-4.25zM59.416 54.878H49.03l5.14-7.642 5.247 7.642zM53.84 40.984l-14.364 21.38h4.547l2.57-3.838h15.34l2.632 3.838h4.713l-14.663-21.38h-.775zM85.246 53.396L71.993 41.27h-.968v21.094h4.25V49.632l9.627 8.799h.642l9.145-8.761v12.694h4.251V41.27h-.974zM104.174 62.364h4.25V41.587h-4.25zM6.014 75.97c-3.397 0-5.808-1.424-5.808-3.946 0-2.536 2.574-4.06 5.733-4.06 2.398 0 3.572.45 4.034.625v.924l-.05.038c-.587-.4-1.66-1-3.947-1-2.684 0-4.583 1.15-4.583 3.473 0 2.235 1.636 3.36 4.621 3.36 2.061 0 3.098-.538 4.134-1.35l.063.026v.987c-.55.312-1.936.924-4.197.924M16.767 75.383c2.81 0 4.434-1.236 4.434-3.385 0-2.16-1.71-3.446-4.434-3.446-2.722 0-4.383 1.261-4.383 3.422 0 2.148 1.586 3.41 4.383 3.41m.025.587c-2.922 0-5.595-1.312-5.595-3.973 0-2.772 2.81-4.033 5.595-4.033 2.773 0 5.596 1.236 5.596 4.01 0 2.66-2.673 3.996-5.596 3.996M24.135 68.064h.975c2.273 2.137 5.07 4.634 7.356 6.645.025-1.761.025-4.996 0-6.607l.05-.038h.624l.05.05c-.05 2.236-.05 5.345 0 7.694l-.062.05h-.924c-1.961-1.898-5.183-4.784-7.395-6.72a241.522 241.522 0 0 0 0 6.683l-.049.037h-.637l-.037-.037c.037-1.924.037-5.908 0-7.72l.05-.037zM36.45 75.222c.674.061 1.074.174 2.797.174 3.397 0 4.984-1.25 4.984-3.323 0-2.273-1.674-3.521-5.046-3.521-1.324 0-1.96.112-2.735.224-.038 1.275-.026 4.335 0 6.446zm-1.062.612c.05-2.399.05-5.846 0-7.657l.05-.05c.961-.037 1.786-.162 3.984-.162 3.185 0 5.995 1.311 5.995 4.084 0 2.473-2.722 3.922-5.995 3.922-1.948 0-3.098-.113-3.984-.1l-.05-.037zM52.186 75.383c2.81 0 4.434-1.236 4.434-3.385 0-2.16-1.712-3.446-4.434-3.446-2.723 0-4.384 1.261-4.384 3.422 0 2.148 1.586 3.41 4.384 3.41m.025.587c-2.923 0-5.595-1.312-5.595-3.973 0-2.772 2.81-4.033 5.595-4.033 2.773 0 5.595 1.236 5.595 4.01 0 2.66-2.673 3.996-5.595 3.996M64.087 75.858H63.1l-.037-.024c.05-2.399.05-5.934 0-7.732l.05-.037h.974l.05.05c-.037 1.211-.05 2.81-.05 4.433 2.56-1.674 4.422-3.097 6.27-4.483h1.4l.024.05c-1.362.811-3.022 1.923-4.746 3.122 1.436 1.323 3.41 3.085 5.258 4.571l-.037.05h-1.487a69.251 69.251 0 0 0-4.57-4.034l-2.112 1.474c.013.886.025 1.748.05 2.523l-.05.037zM73.642 75.821c.05-2.398.05-5.908 0-7.706l.037-.05h.987l.05.037a266.8 266.8 0 0 0-.013 7.72l-.05.037h-.974l-.037-.038zM77.025 68.064H78c2.273 2.137 5.07 4.634 7.356 6.645.026-1.761.026-4.996 0-6.607l.05-.038h.625l.05.05c-.05 2.236-.05 5.345 0 7.694l-.063.05h-.924c-1.96-1.898-5.183-4.784-7.394-6.72a239.509 239.509 0 0 0 0 6.683l-.05.037h-.637l-.037-.037c.037-1.924.037-5.908 0-7.72l.05-.037zM93.512 75.97c-3.36 0-5.733-1.398-5.733-3.96 0-2.472 2.61-4.046 5.682-4.046 2.56 0 3.76.438 4.223.637v1.037l-.051.025c-.562-.474-1.586-1.111-4.134-1.111-2.723 0-4.534 1.161-4.534 3.459 0 2.324 1.561 3.372 4.547 3.372 1.573 0 2.522-.287 3.409-.624.025-.886.025-1.386-.012-2.71l.05-.05h.974l.05.037a32.655 32.655 0 0 0 0 3.135c-1.236.487-2.498.8-4.471.8M105.913 72.386c-1.211-.2-3.073-.025-4.708-.4-1.112-.25-1.7-.824-1.7-1.773 0-1.349 1.3-2.249 4.16-2.249 2.31 0 3.435.475 3.884.724v.912l-.062.026c-.525-.437-1.649-1.074-3.885-1.074-2.61 0-3.247.761-3.247 1.473 0 .637.425 1 1.249 1.162 1.261.25 3.035.112 4.521.325 1.3.187 2.074.712 2.074 1.786 0 1.511-1.386 2.673-4.622 2.673-2.335 0-3.709-.55-4.258-.912v-1.012l.05-.025c.911.8 2.135 1.361 4.27 1.361 2.699 0 3.635-.773 3.635-1.76 0-.626-.437-1.088-1.36-1.237M115.473 43.924l-.09-1.44c-.009-.19-.009-.414-.018-.685h-.027c-.063.216-.135.504-.207.73l-.44 1.358h-.505l-.432-1.394c-.045-.18-.126-.478-.18-.694h-.027c0 .225-.009.468-.018.685l-.09 1.44h-.468l.18-2.449h.738l.414 1.197c.063.19.108.369.162.622h.018c.054-.216.117-.432.162-.603l.423-1.216h.711l.18 2.449h-.486zm-2.646-2.449v.405h-.783v2.044h-.486V41.88h-.774v-.405h2.043z"/></g></svg>